HIERARCHY
ROOT reference
{
  OFFSET 0 0 0
  CHANNELS 6 Xposition Yposition Zposition Zrotation Xrotation Yrotation
  JOINT Hips
  {
    OFFSET -17.5265 86.8787 98.189
    CHANNELS 6 Xposition Yposition Zposition Zrotation Xrotation Yrotation
    JOINT Spine
    {
      OFFSET 0 7.85829 0
      CHANNELS 6 Xposition Yposition Zposition Zrotation Xrotation Yrotation
      JOINT Spine1
      {
        OFFSET 0 25.1384 0
        CHANNELS 6 Xposition Yposition Zposition Zrotation Xrotation Yrotation
        JOINT Neck
        {
          OFFSET 0 25.0351 2.27592
          CHANNELS 6 Xposition Yposition Zposition Zrotation Xrotation Yrotation
          JOINT Head
          {
            OFFSET 0 13.4166 -1.91665
            CHANNELS 6 Xposition Yposition Zposition Zrotation Xrotation Yrotation
            End Site
            {
              OFFSET 0 23.9582 0
            }
          }
        }
        JOINT LeftShoulder
        {
          OFFSET 3.81534 24.0346 -0.234509
          CHANNELS 6 Xposition Yposition Zposition Zrotation Xrotation Yrotation
          JOINT LeftArm
          {
            OFFSET 8.62273 0 0
            CHANNELS 6 Xposition Yposition Zposition Zrotation Xrotation Yrotation
            JOINT LeftForeArm
            {
              OFFSET 31.7064 0 0
              CHANNELS 6 Xposition Yposition Zposition Zrotation Xrotation Yrotation
              JOINT LeftHand
              {
                OFFSET 23.7731 0 0
                CHANNELS 6 Xposition Yposition Zposition Zrotation Xrotation Yrotation
                End Site
                {
                  OFFSET 14.3749 0 0
                }
              }
            }
          }
        }
        JOINT RightShoulder
        {
          OFFSET -3.83608 24.0346 -0.234509
          CHANNELS 6 Xposition Yposition Zposition Zrotation Xrotation Yrotation
          JOINT RightArm
          {
            OFFSET -8.62273 0 0
            CHANNELS 6 Xposition Yposition Zposition Zrotation Xrotation Yrotation
            JOINT RightForeArm
            {
              OFFSET -31.7064 0 0
              CHANNELS 6 Xposition Yposition Zposition Zrotation Xrotation Yrotation
              JOINT RightHand
              {
                OFFSET -23.7731 0 0
                CHANNELS 6 Xposition Yposition Zposition Zrotation Xrotation Yrotation
                End Site
                {
                  OFFSET -14.3749 0 0
                }
              }
            }
          }
        }
      }
    }
    JOINT LeftUpLeg
    {
      OFFSET 9.58328 0 0
      CHANNELS 6 Xposition Yposition Zposition Zrotation Xrotation Yrotation
      JOINT LeftLeg
      {
        OFFSET 0 -36.4535 0
        CHANNELS 6 Xposition Yposition Zposition Zrotation Xrotation Yrotation
        JOINT LeftFoot
        {
          OFFSET 0 -41.4659 0
          CHANNELS 6 Xposition Yposition Zposition Zrotation Xrotation Yrotation
          JOINT LeftToeBase
          {
            OFFSET 0 -6.22913 14.3749
            CHANNELS 6 Xposition Yposition Zposition Zrotation Xrotation Yrotation
            End Site
            {
              OFFSET 0 0 3.83331
            }
          }
        }
      }
    }
    JOINT RightUpLeg
    {
      OFFSET -9.58328 0 0
      CHANNELS 6 Xposition Yposition Zposition Zrotation Xrotation Yrotation
      JOINT RightLeg
      {
        OFFSET 0 -36.4535 0
        CHANNELS 6 Xposition Yposition Zposition Zrotation Xrotation Yrotation
        JOINT RightFoot
        {
          OFFSET 0 -41.4659 0
          CHANNELS 6 Xposition Yposition Zposition Zrotation Xrotation Yrotation
          JOINT RightToeBase
          {
            OFFSET 0 -6.22913 14.3749
            CHANNELS 6 Xposition Yposition Zposition Zrotation Xrotation Yrotation
            End Site
            {
              OFFSET 0 0 3.83331
            }
          }
        }
      }
    }
  }
}
MOTION
Frames:	5
Frame Time:	0.004
0 0 0 0 0 -0 10.0508 73.5918 -156.144 6.34192 2.6825 -36.8954 0 7.85829 -2.84217e-014 -3.34505 3.2329 6.43668 1.42109e-014 25.1384 0 6.1855 -6.13996 6.67431 0 25.0351 2.27592 -4.0659 29.3437 8.99858 -3.55271e-015 13.4166 -1.91665 -2.92965 -22.0155 7.87449 3.81534 24.0346 -0.234509 11.564 -0.58836 2.44299 8.62273 0 0 -3.0714 -9.42944 -3.14178 31.7064 0 -1.42109e-014 37.5777 -48.7347 -46.8259 23.7731 0 0 46.1504 -33.7201 7.28399 -3.83608 24.0346 -0.234509 -7.45513 3.56305 10.5804 -8.62273 1.42109e-014 0 -2.96307 -2.43953 3.81047 -31.7064 -1.42109e-014 0 -19.2577 -34.0575 79.2544 -23.7731 0 -1.42109e-014 -26.8816 -18.363 -5.70237 9.58328 2.84217e-014 -2.84217e-014 4.25377 -33.9721 -0.942291 -1.42109e-014 -36.4535 0 -18.8724 59.1785 12.1728 0 -41.4659 0 8.306 -25.167 12.767 1.42109e-014 -6.22913 14.3749 3.97569e-016 -3.97569e-016 -0 -9.58328 1.42109e-014 0 -1.00485 1.95024 1.39219 0 -36.4535 0 3.4565 33.1756 11.0709 0 -41.4659 0 -6.33377 -26.0421 -13.2533 0 -6.22913 14.3749 -2.38542e-015 -1.59028e-015 -0 
0 0 0 0 0 -0 9.78723 73.7451 -155.605 6.53395 2.64048 -37.1228 0 7.85829 -2.84217e-014 -3.41607 3.14196 6.57518 0 25.1384 -2.84217e-014 6.14798 -6.15432 6.81229 0 25.0351 2.27592 -4.2661 29.4662 9.03535 3.55271e-015 13.4166 -1.91665 -2.85224 -21.9062 7.90959 3.81534 24.0346 -0.234509 11.6384 -0.746716 2.62316 8.62273 0 2.84217e-014 -2.92895 -9.6996 -2.88476 31.7064 0 -1.42109e-014 38.982 -49.235 -46.8127 23.7731 0 1.42109e-014 47.0733 -33.6373 7.51412 -3.83608 24.0346 -0.234509 -7.48843 3.56256 10.5576 -8.62273 0 0 -2.89381 -2.44984 3.74238 -31.7064 -1.42109e-014 0 -20.018 -34.3315 78.9336 -23.7731 2.84217e-014 0 -26.064 -18.2606 -5.34619 9.58328 0 0 3.88056 -34.09 -1.26926 0 -36.4535 1.42109e-014 -18.3949 57.8551 11.6844 0 -41.4659 0 7.93115 -25.1325 12.8133 -1.42109e-014 -6.22913 14.3749 6.95746e-016 -9.93923e-016 -3.18055e-015 -9.58328 0 0 -1.28018 2.42628 1.58894 -1.42109e-014 -36.4535 0 3.41438 32.6896 10.7417 -1.42109e-014 -41.4659 0 -5.90565 -25.3133 -12.7194 1.42109e-014 -6.22913 14.3749 7.95139e-016 3.18055e-015 -9.54166e-015 
0 0 0 0 0 -0 9.52145 73.8912 -155.069 6.69337 2.57494 -37.3347 -1.42109e-014 7.85829 0 -3.46832 3.0674 6.71517 0 25.1384 0 6.07887 -6.15148 6.94921 0 25.0351 2.27592 -4.31601 29.6443 9.05264 -7.10543e-015 13.4166 -1.91665 -2.9417 -21.8536 7.88534 3.81534 24.0346 -0.234509 11.7769 -0.837625 2.83782 8.62273 -2.84217e-014 0 -2.97513 -9.62885 -2.81931 31.7064 0 1.42109e-014 41.3516 -49.926 -45.8307 23.7731 0 1.42109e-014 47.5423 -33.8512 7.57994 -3.83608 24.0346 -0.234509 -7.51129 3.62996 10.5207 -8.62273 -2.84217e-014 0 -2.82311 -2.52902 3.65238 -31.7064 -1.42109e-014 0 -20.7662 -34.6341 78.6177 -23.7731 0 0 -25.5874 -18.1555 -5.12681 9.58328 0 0 3.51624 -34.13 -1.61661 0 -36.4535 1.42109e-014 -17.9251 56.484 11.2592 -1.42109e-014 -41.4659 -1.42109e-014 7.40762 -25.1184 12.7581 0 -6.22913 14.3749 -1.09332e-015 1.98785e-016 6.36111e-015 -9.58328 0 0 -1.54235 2.85592 1.36794 0 -36.4535 2.84217e-014 3.13354 32.381 11.2791 -7.10543e-015 -41.4659 0 -5.17815 -24.5748 -12.5377 0 -6.22913 14.3749 -1.59028e-015 0 9.54166e-015 
0 0 0 0 0 -0 9.2341 74.0477 -154.517 6.85875 2.54883 -37.527 -1.42109e-014 7.85829 0 -3.5266 2.93907 6.86001 1.42109e-014 25.1384 2.84217e-014 6.05949 -6.126 7.09404 0 25.0351 2.27592 -4.48903 29.7106 9.08438 0 13.4166 -1.91665 -2.84292 -21.6422 7.92978 3.81534 24.0346 -0.234509 11.8231 -0.856128 3.00496 8.62273 0 0 -2.91327 -9.82156 -2.66929 31.7064 -2.84217e-014 0 43.1974 -50.5143 -45.3803 23.7731 0 -1.42109e-014 48.481 -33.9001 7.75763 -3.83608 24.0346 -0.234509 -7.55859 3.66786 10.4614 -8.62273 0 -2.84217e-014 -2.74011 -2.78377 3.54008 -31.7064 1.42109e-014 -2.84217e-014 -21.3528 -34.8513 78.4786 -23.7731 0 1.42109e-014 -25.1588 -18.0423 -4.85764 9.58328 2.84217e-014 0 3.17757 -34.1647 -1.978 0 -36.4535 0 -17.5391 55.0658 10.9906 -1.42109e-014 -41.4659 -1.42109e-014 6.98974 -24.9659 12.6414 -7.10543e-015 -6.22913 14.3749 -4.72114e-016 8.57259e-016 -0 -9.58328 0 0 -1.76703 3.28003 1.19726 0 -36.4535 -2.84217e-014 2.86143 32.0293 11.4392 0 -41.4659 0 -4.64512 -23.7593 -12.0934 0 -6.22913 14.3749 7.95139e-016 -4.77083e-015 -1.27222e-014 
0 0 0 0 0 -0 8.94613 74.2083 -153.963 7.02455 2.51737 -37.7188 0 7.85829 0 -3.56771 2.83658 7.00061 1.42109e-014 25.1384 2.84217e-014 5.99645 -6.16923 7.23567 7.10543e-015 25.0351 2.27592 -4.64766 29.9281 9.1175 0 13.4166 -1.91665 -2.75139 -21.5869 7.96376 3.81534 24.0346 -0.234509 11.8689 -0.864725 3.15686 8.62273 0 0 -2.89258 -9.76179 -2.56157 31.7064 0 -1.42109e-014 45.4277 -51.1229 -44.5003 23.7731 0 -1.42109e-014 49.293 -34.0401 7.87257 -3.83608 24.0346 -0.234509 -7.54394 3.72919 10.4364 -8.62273 1.42109e-014 0 -2.58224 -2.77025 3.42702 -31.7064 -2.84217e-014 0 -22.3491 -35.4607 78.0741 -23.7731 -2.84217e-014 1.42109e-014 -24.6858 -18.1032 -4.73461 9.58328 1.42109e-014 0 2.81953 -34.1331 -2.35879 0 -36.4535 0 -17.0848 53.5549 10.8896 0 -41.4659 1.42109e-014 6.50538 -24.9159 12.2651 0 -6.22913 14.3749 -1.14301e-015 -4.96962e-016 3.18055e-015 -9.58328 0 0 -2.006 3.68402 1.13536 -1.42109e-014 -36.4535 0 2.68104 31.6961 11.5104 7.10543e-015 -41.4659 0 -4.20783 -22.8884 -11.7668 0 -6.22913 14.3749 -5.29669e-031 -4.77083e-015 -6.36111e-015 
